<?xml version="1.0" encoding="UTF-8" standalone="no"?>
<svg
   viewBox="0 0 512 512"
   version="1.1"
   id="svg4"
   sodipodi:docname="paw.svg"
   inkscape:version="1.1 (c68e22c387, 2021-05-23)"
   xmlns:inkscape="http://www.inkscape.org/namespaces/inkscape"
   xmlns:sodipodi="http://sodipodi.sourceforge.net/DTD/sodipodi-0.dtd"
   xmlns="http://www.w3.org/2000/svg"
   xmlns:svg="http://www.w3.org/2000/svg">
  <defs
     id="defs8" />
  <sodipodi:namedview
     id="namedview6"
     pagecolor="#ffffff"
     bordercolor="#666666"
     borderopacity="1.0"
     inkscape:pageshadow="2"
     inkscape:pageopacity="0.0"
     inkscape:pagecheckerboard="0"
     showgrid="false"
     inkscape:zoom="1.1490485"
     inkscape:cx="205.38732"
     inkscape:cy="290.24014"
     inkscape:window-width="2560"
     inkscape:window-height="1017"
     inkscape:window-x="-8"
     inkscape:window-y="-8"
     inkscape:window-maximized="1"
     inkscape:current-layer="svg4" />
  <!-- Font Awesome Free 5.15.3 by @fontawesome - https://fontawesome.com License - https://fontawesome.com/license/free (Icons: CC BY 4.0, Fonts: SIL OFL 1.1, Code: MIT License) -->
  <path
     d="m 256.05536,226.56745 c -73.16259,0 -176.894799,113.10212 -176.894799,184.49575 0,32.15432 24.700779,51.36398 66.095999,51.36398 44.99762,0 74.71042,-23.10687 110.7988,-23.10687 36.40163,0 66.19735,23.10687 110.79879,23.10687 41.39523,0 66.096,-19.20966 66.096,-51.36398 0,-71.39363 -103.7322,-184.49575 -176.89479,-184.49575 z M 120.3623,214.94951 c -9.58179,-31.92398 -39.101115,-52.59856 -65.930159,-46.18612 -26.829044,6.41244 -40.805576,37.48879 -31.223775,69.41279 9.581801,31.92398 39.101122,52.59855 65.930166,46.18612 26.829048,-6.41243 40.805578,-37.4888 31.223768,-69.41279 z m 78.05484,-19.14517 c 28.50585,-7.49961 42.768,-46.01107 31.85949,-86.0151 -10.90852,-40.004021 -42.86013,-66.344761 -71.366,-58.84516 -28.50587,7.499603 -42.768,46.011078 -31.85949,86.0151 10.9085,40.00402 42.86935,66.35397 71.366,58.84516 z M 457.66937,168.7726 c -26.82905,-6.41243 -56.33916,14.26215 -65.93017,46.18612 -9.58181,31.92398 4.39472,63.00035 31.22378,69.4128 26.82904,6.41243 56.33915,-14.26215 65.93015,-46.18613 9.58181,-31.92399 -4.39472,-63.00035 -31.22376,-69.41279 z m -143.9758,27.03174 c 28.50587,7.4996 60.4575,-18.84114 71.36601,-58.84516 10.90851,-40.004022 -3.35363,-78.506283 -31.85949,-86.0151 -28.50586,-7.508814 -60.45748,18.841139 -71.36601,58.84516 -10.90851,40.00403 3.35364,78.51549 31.85949,86.0151 z"
     id="path2"
     style="fill:none;fill-opacity:1;stroke:#f6f6f6;stroke-width:36.8531;stroke-miterlimit:4;stroke-dasharray:none;stroke-opacity:1" />
</svg>
